<svg width="16.666992" height="16.875000" viewBox="0 0 16.667 16.875" fill="none" xmlns="http://www.w3.org/2000/svg" xmlns:xlink="http://www.w3.org/1999/xlink">
	<desc>
			Created with Pixso.
	</desc>
	<defs/>
	<path id="Vector" d="M4.79 0.62C4.79 0.45 4.72 0.3 4.6 0.18C4.49 0.06 4.33 0 4.16 0C4 0 3.84 0.06 3.72 0.18C3.6 0.3 3.54 0.45 3.54 0.62L3.54 1.94C2.34 2.03 1.55 2.27 0.97 2.85C0.39 3.43 0.16 4.21 0.06 5.41L16.6 5.41C16.5 4.21 16.26 3.43 15.68 2.85C15.11 2.27 14.32 2.03 13.12 1.94L13.12 0.62C13.12 0.45 13.05 0.3 12.94 0.18C12.82 0.06 12.66 0 12.5 0C12.33 0 12.17 0.06 12.05 0.18C11.94 0.3 11.87 0.45 11.87 0.62L11.87 1.88C11.32 1.87 10.69 1.87 10 1.87L6.66 1.87C5.96 1.87 5.34 1.87 4.79 1.88L4.79 0.62Z" fill="#FFFFFF" fill-opacity="1.000000" fill-rule="nonzero"/>
	<path id="Vector" d="M0 8.54C0 7.84 0 7.22 0.01 6.66L16.65 6.66C16.66 7.22 16.66 7.84 16.66 8.54L16.66 10.2C16.66 13.35 16.66 14.92 15.69 15.89C14.71 16.87 13.14 16.87 10 16.87L6.66 16.87C3.52 16.87 1.95 16.87 0.97 15.89C0 14.92 0 13.35 0 10.2L0 8.54ZM12.5 10.2C12.72 10.2 12.93 10.12 13.08 9.96C13.24 9.8 13.33 9.59 13.33 9.37C13.33 9.15 13.24 8.94 13.08 8.78C12.93 8.62 12.72 8.54 12.5 8.54C12.27 8.54 12.06 8.62 11.91 8.78C11.75 8.94 11.66 9.15 11.66 9.37C11.66 9.59 11.75 9.8 11.91 9.96C12.06 10.12 12.27 10.2 12.5 10.2ZM12.5 13.54C12.72 13.54 12.93 13.45 13.08 13.29C13.24 13.14 13.33 12.92 13.33 12.7C13.33 12.48 13.24 12.27 13.08 12.11C12.93 11.96 12.72 11.87 12.5 11.87C12.27 11.87 12.06 11.96 11.91 12.11C11.75 12.27 11.66 12.48 11.66 12.7C11.66 12.92 11.75 13.14 11.91 13.29C12.06 13.45 12.27 13.54 12.5 13.54ZM9.16 9.37C9.16 9.59 9.07 9.8 8.92 9.96C8.76 10.12 8.55 10.2 8.33 10.2C8.11 10.2 7.9 10.12 7.74 9.96C7.58 9.8 7.5 9.59 7.5 9.37C7.5 9.15 7.58 8.94 7.74 8.78C7.9 8.62 8.11 8.54 8.33 8.54C8.55 8.54 8.76 8.62 8.92 8.78C9.07 8.94 9.16 9.15 9.16 9.37ZM9.16 12.7C9.16 12.92 9.07 13.14 8.92 13.29C8.76 13.45 8.55 13.54 8.33 13.54C8.11 13.54 7.9 13.45 7.74 13.29C7.58 13.14 7.5 12.92 7.5 12.7C7.5 12.48 7.58 12.27 7.74 12.11C7.9 11.96 8.11 11.87 8.33 11.87C8.55 11.87 8.76 11.96 8.92 12.11C9.07 12.27 9.16 12.48 9.16 12.7ZM4.16 10.2C4.38 10.2 4.6 10.12 4.75 9.96C4.91 9.8 5 9.59 5 9.37C5 9.15 4.91 8.94 4.75 8.78C4.6 8.62 4.38 8.54 4.16 8.54C3.94 8.54 3.73 8.62 3.57 8.78C3.42 8.94 3.33 9.15 3.33 9.37C3.33 9.59 3.42 9.8 3.57 9.96C3.73 10.12 3.94 10.2 4.16 10.2ZM4.16 13.54C4.38 13.54 4.6 13.45 4.75 13.29C4.91 13.14 5 12.92 5 12.7C5 12.48 4.91 12.27 4.75 12.11C4.6 11.96 4.38 11.87 4.16 11.87C3.94 11.87 3.73 11.96 3.57 12.11C3.42 12.27 3.33 12.48 3.33 12.7C3.33 12.92 3.42 13.14 3.57 13.29C3.73 13.45 3.94 13.54 4.16 13.54Z" fill="#FFFFFF" fill-opacity="1.000000" fill-rule="evenodd"/>
</svg>
