<svg width="18.333496" height="12.500000" viewBox="0 0 18.3335 12.5" fill="none" xmlns="http://www.w3.org/2000/svg" xmlns:xlink="http://www.w3.org/1999/xlink">
	<desc>
			Created with Pixso.
	</desc>
	<defs/>
	<path id="Vector" d="M9.16 3.75C8.5 3.75 7.86 4.01 7.39 4.48C6.93 4.95 6.66 5.58 6.66 6.25C6.66 6.91 6.93 7.54 7.39 8.01C7.86 8.48 8.5 8.75 9.16 8.75C9.82 8.75 10.46 8.48 10.93 8.01C11.4 7.54 11.66 6.91 11.66 6.25C11.66 5.58 11.4 4.95 10.93 4.48C10.46 4.01 9.82 3.75 9.16 3.75ZM9.16 10.41C8.06 10.41 7 9.97 6.22 9.19C5.43 8.41 5 7.35 5 6.25C5 5.14 5.43 4.08 6.22 3.3C7 2.52 8.06 2.08 9.16 2.08C10.27 2.08 11.33 2.52 12.11 3.3C12.89 4.08 13.33 5.14 13.33 6.25C13.33 7.35 12.89 8.41 12.11 9.19C11.33 9.97 10.27 10.41 9.16 10.41ZM9.16 0C5 0 1.44 2.59 0 6.25C1.44 9.9 5 12.5 9.16 12.5C13.33 12.5 16.89 9.9 18.33 6.25C16.89 2.59 13.33 0 9.16 0Z" fill="#FFFFFF" fill-opacity="1.000000" fill-rule="nonzero"/>
</svg>
