<svg width="30.250000" height="37.122192" viewBox="0 0 30.25 37.1222" fill="none" xmlns="http://www.w3.org/2000/svg" xmlns:xlink="http://www.w3.org/1999/xlink">
	<desc>
			Created with Pixso.
	</desc>
	<defs/>
	<path id="Vector" d="M14.28 36.85L14.41 36.92L14.46 36.95C14.66 37.06 14.89 37.12 15.12 37.12C15.35 37.12 15.58 37.06 15.78 36.95L15.83 36.92L15.96 36.85C16.07 36.78 16.23 36.69 16.43 36.57C16.83 36.32 17.39 35.96 18.06 35.49C19.82 34.24 21.47 32.84 22.98 31.3C26.54 27.65 30.25 22.17 30.25 15.12C30.25 11.11 28.65 7.26 25.81 4.43C22.98 1.59 19.13 0 15.12 0C11.11 0 7.26 1.59 4.43 4.43C1.59 7.26 0 11.11 0 15.12C0 22.17 3.7 27.65 7.26 31.3C8.77 32.84 10.42 34.24 12.18 35.49C12.86 35.97 13.56 36.42 14.28 36.85ZM15.12 20.62C16.58 20.62 17.98 20.04 19.01 19.01C20.04 17.98 20.62 16.58 20.62 15.12C20.62 13.66 20.04 12.26 19.01 11.23C17.98 10.2 16.58 9.62 15.12 9.62C13.66 9.62 12.26 10.2 11.23 11.23C10.2 12.26 9.62 13.66 9.62 15.12C9.62 16.58 10.2 17.98 11.23 19.01C12.26 20.04 13.66 20.62 15.12 20.62Z" fill="#0090C7" fill-opacity="1.000000" fill-rule="evenodd"/>
</svg>
