<svg width="44.687500" height="54.839600" viewBox="0 0 44.6875 54.8396" fill="none" xmlns="http://www.w3.org/2000/svg" xmlns:xlink="http://www.w3.org/1999/xlink">
	<desc>
			Created with Pixso.
	</desc>
	<defs/>
	<path id="Vector" d="M21.09 54.44L21.28 54.54L21.36 54.59C21.66 54.75 22 54.83 22.34 54.83C22.68 54.83 23.02 54.75 23.32 54.59L23.39 54.55L23.58 54.44C23.75 54.34 23.98 54.2 24.28 54.02C24.86 53.66 25.69 53.13 26.69 52.43C29.29 50.59 31.72 48.52 33.95 46.25C39.21 40.86 44.68 32.76 44.68 22.34C44.68 16.41 42.33 10.73 38.14 6.54C33.95 2.35 28.26 0 22.34 0C16.41 0 10.73 2.35 6.54 6.54C2.35 10.73 0 16.41 0 22.34C0 32.75 5.47 40.86 10.73 46.25C12.96 48.52 15.39 50.59 17.99 52.43C19 53.14 20.03 53.81 21.09 54.44ZM22.34 30.46C24.49 30.46 26.56 29.61 28.08 28.08C29.61 26.56 30.46 24.49 30.46 22.34C30.46 20.18 29.61 18.12 28.08 16.59C26.56 15.07 24.49 14.21 22.34 14.21C20.18 14.21 18.12 15.07 16.59 16.59C15.07 18.12 14.21 20.18 14.21 22.34C14.21 24.49 15.07 26.56 16.59 28.08C18.12 29.61 20.18 30.46 22.34 30.46Z" fill="#0090C7" fill-opacity="1.000000" fill-rule="evenodd"/>
</svg>
