<?xml version="1.0" standalone="no"?>
<!DOCTYPE svg PUBLIC "-//W3C//DTD SVG 20010904//EN"
 "http://www.w3.org/TR/2001/REC-SVG-20010904/DTD/svg10.dtd">
<svg version="1.0" xmlns="http://www.w3.org/2000/svg"
 width="145.000000pt" height="78.000000pt" viewBox="0 0 145.000000 78.000000"
 preserveAspectRatio="xMidYMid meet">

<g transform="translate(0.000000,78.000000) scale(0.100000,-0.100000)"
fill="#000000" stroke="none">
<path d="M201 502 c-37 -20 -71 -73 -71 -110 0 -38 31 -93 64 -113 113 -69
246 64 176 178 -36 60 -106 79 -169 45z m103 -63 c48 -38 20 -119 -41 -119
-30 0 -73 42 -73 70 0 26 43 70 68 70 11 0 31 -9 46 -21z"/>
<path d="M785 508 c-83 -29 -130 -100 -102 -155 31 -59 96 -93 177 -93 93 0
180 62 180 128 0 91 -144 159 -255 120z m165 -76 c81 -61 -45 -140 -155 -97
-72 27 -72 79 0 112 39 17 122 9 155 -15z"/>
<path d="M434 495 c-10 -25 15 -44 62 -47 l45 -3 -65 -85 c-36 -46 -62 -88
-60 -92 3 -4 51 -8 108 -8 114 0 151 13 130 47 -8 13 -26 19 -68 21 l-56 3 58
77 c32 42 62 83 66 90 6 9 -18 12 -104 12 -89 0 -112 -3 -116 -15z"/>
<path d="M1087 503 c-4 -3 -7 -53 -7 -109 0 -79 4 -106 15 -118 29 -28 45 -9
45 55 0 32 3 59 8 59 4 0 41 -27 82 -60 41 -33 79 -60 83 -60 4 0 6 53 5 118
-3 112 -4 117 -25 120 -24 4 -30 -11 -35 -82 l-3 -39 -77 61 c-83 66 -81 65
-91 55z"/>
</g>
</svg>
