<svg width="15.000000" height="15.000000" viewBox="0 0 15 15" fill="none" xmlns="http://www.w3.org/2000/svg" xmlns:xlink="http://www.w3.org/1999/xlink">
	<desc>
			Created with Pixso.
	</desc>
	<defs/>
	<path id="Vector" d="M1.25 15C1.25 15 0 15 0 13.75C0 12.5 1.25 8.75 7.5 8.75C13.75 8.75 15 12.5 15 13.75C15 15 13.75 15 13.75 15L1.25 15ZM7.5 7.5C8.49 7.5 9.44 7.1 10.15 6.4C10.85 5.69 11.25 4.74 11.25 3.75C11.25 2.75 10.85 1.8 10.15 1.09C9.44 0.39 8.49 0 7.5 0C6.5 0 5.55 0.39 4.84 1.09C4.14 1.8 3.75 2.75 3.75 3.75C3.75 4.74 4.14 5.69 4.84 6.4C5.55 7.1 6.5 7.5 7.5 7.5Z" fill="#0090C7" fill-opacity="1.000000" fill-rule="nonzero"/>
</svg>
