<svg width="20.000000" height="20.000000" viewBox="0 0 20 20" fill="none" xmlns="http://www.w3.org/2000/svg" xmlns:xlink="http://www.w3.org/1999/xlink">
	<desc>
			Created with Pixso.
	</desc>
	<defs>
		<clipPath id="clip266_62">
			<rect id="bi:person-fill" rx="0.000000" width="19.000000" height="19.000000" transform="translate(0.500000 0.500000)" fill="white" fill-opacity="0"/>
		</clipPath>
	</defs>
	<rect id="bi:person-fill" rx="0.000000" width="19.000000" height="19.000000" transform="translate(0.500000 0.500000)" fill="#FFFFFF" fill-opacity="0"/>
	<g clip-path="url(#clip266_62)">
		<path id="Vector" d="M3.75 17.5C3.75 17.5 2.5 17.5 2.5 16.25C2.5 15 3.75 11.25 10 11.25C16.25 11.25 17.5 15 17.5 16.25C17.5 17.5 16.25 17.5 16.25 17.5L3.75 17.5ZM10 10C10.99 10 11.94 9.6 12.65 8.9C13.35 8.19 13.75 7.24 13.75 6.25C13.75 5.25 13.35 4.3 12.65 3.59C11.94 2.89 10.99 2.5 10 2.5C9 2.5 8.05 2.89 7.34 3.59C6.64 4.3 6.25 5.25 6.25 6.25C6.25 7.24 6.64 8.19 7.34 8.9C8.05 9.6 9 10 10 10Z" fill="#0090C7" fill-opacity="1.000000" fill-rule="nonzero"/>
	</g>
</svg>
