<svg width="27.714111" height="29.998779" viewBox="0 0 27.7141 29.9988" fill="none" xmlns="http://www.w3.org/2000/svg" xmlns:xlink="http://www.w3.org/1999/xlink">
	<desc>
			Created with Pixso.
	</desc>
	<defs/>
	<path id="Vector" d="M13.67 13.63C12.91 19.81 8.99 20.9 8.99 25.2C8.99 27.84 11.22 29.99 13.85 29.99C16.49 29.99 18.71 27.84 18.71 25.2C18.71 20.9 14.79 19.81 14.03 13.63C14 13.45 13.7 13.45 13.67 13.63ZM4.68 0.13C3.91 6.31 0 7.4 0 11.7C0 14.34 2.22 16.49 4.85 16.49C7.49 16.49 9.71 14.34 9.71 11.7C9.71 7.4 5.79 6.31 5.03 0.13C5.01 -0.05 4.7 -0.05 4.68 0.13ZM22.68 0.13C21.91 6.31 18 7.4 18 11.7C18 14.34 20.22 16.49 22.85 16.49C25.49 16.49 27.71 14.34 27.71 11.7C27.71 7.4 23.79 6.31 23.03 0.13C23 -0.05 22.7 -0.05 22.68 0.13Z" fill="#FFFFFF" fill-opacity="1.000000" fill-rule="nonzero"/>
</svg>
