<svg width="17.048828" height="17.058838" viewBox="0 0 17.0488 17.0588" fill="none" xmlns="http://www.w3.org/2000/svg" xmlns:xlink="http://www.w3.org/1999/xlink">
	<desc>
			Created with Pixso.
	</desc>
	<defs/>
	<path id="Vector" d="M12.5 11L11.71 11L11.43 10.73C12.05 10 12.51 9.15 12.76 8.22C13.02 7.3 13.07 6.33 12.91 5.39C12.44 2.61 10.12 0.39 7.32 0.05C6.33 -0.08 5.33 0.02 4.39 0.35C3.45 0.67 2.6 1.2 1.9 1.9C1.2 2.6 0.67 3.45 0.35 4.39C0.02 5.33 -0.08 6.33 0.05 7.32C0.39 10.12 2.61 12.44 5.39 12.91C6.33 13.07 7.3 13.02 8.22 12.76C9.15 12.51 10 12.05 10.73 11.43L11 11.71L11 12.5L15.25 16.75C15.66 17.16 16.33 17.16 16.74 16.75C17.15 16.34 17.15 15.67 16.74 15.26L12.5 11ZM6.5 11C4.01 11 2 8.99 2 6.5C2 4.01 4.01 2 6.5 2C8.99 2 11 4.01 11 6.5C11 8.99 8.99 11 6.5 11Z" fill="#FFFFFF" fill-opacity="1.000000" fill-rule="nonzero"/>
</svg>
