<svg width="20.833252" height="20.833252" viewBox="0 0 20.8333 20.8333" fill="none" xmlns="http://www.w3.org/2000/svg" xmlns:xlink="http://www.w3.org/1999/xlink">
	<desc>
			Created with Pixso.
	</desc>
	<defs/>
	<path id="Vector" d="M10.41 0C4.66 0 0 4.66 0 10.41C0 16.16 4.66 20.83 10.41 20.83C16.16 20.83 20.83 16.16 20.83 10.41C20.83 4.66 16.16 0 10.41 0ZM15.25 7.08C15.09 8.72 14.41 12.72 14.07 14.57C13.92 15.35 13.63 15.61 13.36 15.64C12.76 15.69 12.3 15.25 11.71 14.86C10.8 14.26 10.28 13.88 9.39 13.3C8.36 12.62 9.03 12.25 9.62 11.64C9.78 11.48 12.44 9.06 12.5 8.84C12.5 8.81 12.5 8.77 12.49 8.74C12.48 8.71 12.47 8.68 12.44 8.65C12.38 8.6 12.3 8.62 12.22 8.63C12.13 8.65 10.67 9.62 7.83 11.54C7.41 11.82 7.04 11.96 6.7 11.95C6.33 11.94 5.62 11.75 5.09 11.57C4.43 11.36 3.92 11.25 3.96 10.88C3.98 10.69 4.25 10.51 4.73 10.31C7.78 8.98 9.8 8.11 10.81 7.69C13.7 6.48 14.3 6.28 14.69 6.28C14.78 6.28 14.97 6.3 15.1 6.4C15.2 6.48 15.23 6.6 15.25 6.68C15.23 6.75 15.26 6.93 15.25 7.08Z" fill="#FFFFFF" fill-opacity="1.000000" fill-rule="nonzero"/>
</svg>
