<svg width="70.000000" height="70.000000" viewBox="0 0 70 70" fill="none" xmlns="http://www.w3.org/2000/svg" xmlns:xlink="http://www.w3.org/1999/xlink">
	<desc>
			Created with Pixso.
	</desc>
	<defs/>
	<path id="Subtract" d="M4.92041 4.9206C0 9.84121 0 17.7608 0 33.6L0 36.4C0 52.2392 0 60.1588 4.92041 65.0794C9.84131 70 17.7607 70 33.6001 70L36.3999 70C52.2393 70 60.1587 70 65.0796 65.0794C70 60.1588 70 52.2392 70 36.4L70 33.6C70 17.7608 70 9.84121 65.0796 4.9206C60.1587 0 52.2393 0 36.3999 0L33.6001 0C17.7607 0 9.84131 0 4.92041 4.9206ZM11.8125 21.2918C12.1919 39.4918 21.292 50.4293 37.2461 50.4293L38.1504 50.4293L38.1504 40.0168C44.0127 40.6001 48.4458 44.8876 50.2251 50.4293L58.5088 50.4293C56.2334 42.146 50.2539 37.5668 46.521 35.8168C50.2539 33.6584 55.5039 28.4085 56.7583 21.2918L49.2329 21.2918C47.5996 27.0668 42.7588 32.3168 38.1504 32.8126L38.1504 21.2918L30.625 21.2918L30.625 41.4751C25.9585 40.3084 20.0669 34.6501 19.8042 21.2918L11.8125 21.2918Z" clip-rule="evenodd" fill="#FFFFFF" fill-opacity="1.000000" fill-rule="evenodd"/>
</svg>
