<svg width="20.833252" height="20.833252" viewBox="0 0 20.8333 20.8333" fill="none" xmlns="http://www.w3.org/2000/svg" xmlns:xlink="http://www.w3.org/1999/xlink">
	<desc>
			Created with Pixso.
	</desc>
	<defs/>
	<path id="Vector" d="M13.61 0L7.22 0C1.38 0 0 1.38 0 7.21L0 13.6C0 19.44 1.37 20.83 7.21 20.83L13.6 20.83C19.44 20.83 20.83 19.45 20.83 13.61L20.83 7.22C20.83 1.38 19.45 0 13.61 0ZM16.81 14.86L15.29 14.86C14.72 14.86 14.55 14.39 13.51 13.36C12.61 12.5 12.23 12.39 12.01 12.39C11.69 12.39 11.61 12.47 11.61 12.91L11.61 14.27C11.61 14.64 11.49 14.86 10.52 14.86C9.58 14.8 8.67 14.51 7.87 14.03C7.06 13.55 6.38 12.88 5.89 12.08C4.71 10.61 3.89 8.89 3.49 7.05C3.49 6.82 3.58 6.61 4.01 6.61L5.53 6.61C5.92 6.61 6.06 6.79 6.21 7.19C6.95 9.36 8.21 11.25 8.72 11.25C8.91 11.25 9 11.16 9 10.67L9 8.44C8.94 7.42 8.39 7.33 8.39 6.96C8.4 6.86 8.45 6.77 8.52 6.71C8.59 6.64 8.69 6.61 8.78 6.61L11.17 6.61C11.5 6.61 11.61 6.78 11.61 7.17L11.61 10.18C11.61 10.51 11.75 10.62 11.84 10.62C12.04 10.62 12.19 10.51 12.55 10.15C13.32 9.21 13.95 8.17 14.42 7.05C14.46 6.91 14.55 6.8 14.67 6.72C14.79 6.64 14.93 6.6 15.08 6.61L16.6 6.61C17.05 6.61 17.15 6.84 17.05 7.17C16.5 8.4 15.82 9.58 15.01 10.67C14.85 10.92 14.78 11.05 15.01 11.35C15.16 11.57 15.7 12.02 16.05 12.44C16.58 12.96 17.01 13.56 17.33 14.22C17.46 14.64 17.25 14.86 16.81 14.86Z" fill="#FFFFFF" fill-opacity="1.000000" fill-rule="nonzero"/>
</svg>
