<svg width="20.000000" height="20.000000" viewBox="0 0 20 20" fill="none" xmlns="http://www.w3.org/2000/svg" xmlns:xlink="http://www.w3.org/1999/xlink">
	<desc>
			Created with Pixso.
	</desc>
	<defs/>
	<path id="Vector" d="M19.55 9.55C19.56 9.55 19.56 9.55 19.56 9.55C19.68 9.55 19.8 9.5 19.88 9.41C19.96 9.32 20 9.2 19.99 9.08C19.56 4.25 15.74 0.44 10.92 0C10.79 -0.01 10.67 0.03 10.58 0.11C10.49 0.19 10.44 0.31 10.44 0.44C10.52 6.84 11.36 9.46 19.55 9.55ZM19.55 10.44C11.36 10.53 10.52 13.15 10.44 19.55C10.44 19.68 10.49 19.79 10.58 19.88C10.66 19.95 10.77 20 10.88 20C10.89 20 10.9 19.99 10.92 19.99C15.74 19.55 19.56 15.74 19.99 10.91C20 10.79 19.96 10.67 19.88 10.58C19.79 10.49 19.68 10.44 19.55 10.44ZM9.04 0C4.24 0.45 0.43 4.27 0 9.08C-0.01 9.2 0.03 9.32 0.11 9.41C0.19 9.5 0.31 9.55 0.43 9.55C0.43 9.55 0.44 9.55 0.44 9.55C8.6 9.46 9.45 6.84 9.52 0.44C9.52 0.31 9.47 0.2 9.38 0.11C9.29 0.03 9.17 -0.01 9.04 0ZM0.44 10.44C0.3 10.42 0.19 10.49 0.11 10.58C0.03 10.67 -0.01 10.79 0 10.91C0.43 15.72 4.24 19.54 9.04 19.99C9.06 19.99 9.07 19.99 9.09 19.99C9.19 19.99 9.3 19.95 9.38 19.88C9.47 19.79 9.52 19.67 9.52 19.55C9.45 13.15 8.6 10.53 0.44 10.44Z" fill="#FFFFFF" fill-opacity="1.000000" fill-rule="nonzero"/>
</svg>
